<?xml version="1.0" encoding="UTF-8"?><svg id="Calque_2" xmlns="http://www.w3.org/2000/svg" viewBox="0 0 25.67 55.35"><defs><style>.cls-1{fill:#1d1d1b;stroke-width:0px;}</style></defs><g id="Calque_1-2"><path class="cls-1" d="m14.41,1.92c-1.5-1.28-3.32-1.92-5.45-1.92H0v1.16h1.6v42.63H0v1.16h8.96c1.38,0,2.63-.27,3.74-.81l-.13-1.26c-.23.22-.49.42-.77.6.31-.36.54-.79.7-1.26l-.98-10.13v9.13c0,.71-.24,1.32-.75,1.82-.51.51-1.11.76-1.82.76h-2.23V1.16h2.23c.7,0,1.31.25,1.82.75.51.51.75,1.11.75,1.82v5.9h1.28v-4.99c0-1.32-.33-2.36-1-3.14,1.53.96,2.3,2.31,2.3,4.05v4.08h2.57v-3.07c0-1.8-.75-3.34-2.26-4.63ZM4.17,43.79h-1.28V1.16h1.28v42.63Z"/><path class="cls-1" d="m25.67,11.56h-1.6l-4.51,43.79h-5.11L10.25,11.56h-1.6v-1.16h8.34v1.16h-1.6l3.35,38.46,3.73-38.46h-1.63v-1.16h4.83v1.16Zm-8.68,42.63L12.82,11.56h-1.29l4.2,42.63h1.25Z"/></g></svg>