<?xml version="1.0" encoding="UTF-8"?>
<svg id="Calque_2" data-name="Calque 2" xmlns="http://www.w3.org/2000/svg" viewBox="0 0 50 107.81">
  <defs>
    <style>
      .cls-1 {
        fill: #1d1d1b;
        stroke-width: 0px;
      }
    </style>
  </defs>
  <g id="Calque_1-2" data-name="Calque 1">
    <g>
      <path class="cls-1" d="m28.07,3.75c-2.92-2.5-6.46-3.75-10.61-3.75H0v2.25h3.12v83.04H0v2.25h17.46c2.69,0,5.12-.53,7.29-1.58l-.25-2.45c-.44.42-.95.81-1.5,1.16.6-.7,1.06-1.53,1.37-2.45l-1.92-19.73v17.78c0,1.39-.48,2.57-1.46,3.54-.99.99-2.16,1.48-3.54,1.48h-4.35V2.25h4.35c1.37,0,2.55.49,3.54,1.46.99.99,1.46,2.16,1.46,3.54v11.49h2.5v-9.72c0-2.57-.65-4.59-1.95-6.11,2.97,1.87,4.47,4.51,4.47,7.89v7.94h5v-5.98c0-3.5-1.46-6.51-4.4-9.01ZM8.11,85.29h-2.5V2.25h2.5v83.04Z"/>
      <path class="cls-1" d="m50,22.52h-3.11l-8.79,85.29h-9.95L19.96,22.52h-3.11v-2.26h16.24v2.26h-3.11l6.53,74.91,7.27-74.91h-3.17v-2.26h9.4v2.26Zm-16.91,83.03L24.97,22.52h-2.5l8.18,83.03h2.44Z"/>
    </g>
  </g>
</svg>