<?xml version="1.0" encoding="utf-8"?>
<!-- Generator: Adobe Illustrator 27.8.1, SVG Export Plug-In . SVG Version: 6.00 Build 0)  -->
<svg version="1.1" id="Calque_1" xmlns="http://www.w3.org/2000/svg" xmlns:xlink="http://www.w3.org/1999/xlink" x="0px" y="0px"
	 viewBox="0 0 841.9 213.3" style="enable-background:new 0 0 841.9 213.3;" xml:space="preserve">
<style type="text/css">
	.st0{fill:#55BFAB;}
	.st1{fill:#4C707D;}
</style>
<g>
	<g>
		<path class="st0" d="M176.9,6.4h-41.7c-2.7,0-5,2.2-5,4.9V81c-40.3,0.1-80.7,0.3-121,0.4c-2.7,0-5,2.2-5,4.9
			c0.2,39.1,0.3,78.3,0.5,117.4c0,2.7,2.2,5,4.9,5H51c2.7,0,5-2.2,5-4.9v-71.5c40.3,0,80.5,0,120.8,0c2.7,0,5-2.2,5-4.9v-116
			C181.8,8.8,179.6,6.4,176.9,6.4L176.9,6.4z"/>
		<path class="st1" d="M9.6,57.9H51c1.4,0,2.4-0.5,3.2-1.2c1.1-0.8,1.8-2,1.8-3.8V11.5c0-2.7-2.2-5-4.9-5H9.7c-2.7,0-5,2.2-5,4.9
			v41.5C4.7,55.6,6.9,57.9,9.6,57.9L9.6,57.9z"/>
		<path class="st0" d="M176.5,157.1h-41.4c-2.7,0-5,2.2-5,4.9v41.5c0,2.7,2.2,5,4.9,5h41.4c1.4,0,2.4-0.5,3.2-1.2
			c1.1-0.8,1.8-2,1.8-3.8v-41.5C181.5,159.4,179.3,157.1,176.5,157.1L176.5,157.1z"/>
	</g>
	<path class="st0" d="M395,6.4H227.9c-2.7,0-5,2.2-5,4.9v41.8c0,2.7,2.2,5,4.9,5h56.8v145.6c0,2.7,2.2,5,4.9,5h42.4
		c2.7,0,5-2.2,5-4.9V58.2h58c2.7,0,5-2.2,5-4.9V11.5c0-1.4-0.5-2.4-1.2-3.2C398,7.2,396.7,6.5,395,6.4L395,6.4z"/>
	<path class="st0" d="M619.3,8.2c-0.8-1.1-2-1.8-3.8-1.8H448.4c-2.7,0-5,2.2-5,4.9v41.8c0,2.7,2.2,5,4.9,5h56.8v145.6
		c0,2.7,2.2,5,4.9,5h42.4c2.7,0,5-2.2,5-4.9V58.2h58c2.7,0,5-2.2,5-4.9V11.5C620.4,10.1,620,9,619.3,8.2z"/>
	<path class="st1" d="M836.2,55.5c-3-15.5-12.2-28.3-25-37.2C798.8,9.8,783.3,7,768.5,6.9h-94.1c-5.7,0-10.5,4.6-10.5,10.4v31.7
		c0,5.7,4.6,10.5,10.4,10.5h92.5c4.4,0,10-0.3,13.2,2.3c8.2,6.7,5.8,22-4.3,25.2c-4.2,1.3-9.5,0.7-13.9,0.7h-46.5
		c-16.7,0-34.1-0.4-45,14.6c-8.2,11.3-6,28.8-6,42.2v54c0,5.7,4.6,10.5,10.4,10.5h32.1c5.7,0,10.5-4.6,10.5-10.4v-59.7h33.7
		c17.2,0,34.1,0.5,50.3-6.5C830.9,119.4,842.1,85.7,836.2,55.5L836.2,55.5z"/>
</g>
</svg>
