<?xml version="1.0" encoding="UTF-8"?>
<svg id="Calque_2" data-name="Calque 2" xmlns="http://www.w3.org/2000/svg" viewBox="0 0 204.49 473.23">
  <defs>
    <style>
      .cls-1 {
        fill: #e5e5dc;
        stroke-width: 0px;
      }
    </style>
  </defs>
  <g id="Calque_2-2" data-name="Calque 2">
    <g id="Calque_1-2" data-name="Calque 1-2">
      <g>
        <path class="cls-1" d="m114.48,15.3C102.52,5.1,88.09,0,71.18,0H0v9.2h12.7v338.44H0v9.2h71.18c7.25,0,14.07-.93,20.4-2.82l-1.8-18.28c-.98,2.15-2.37,4.12-4.17,5.93-3.99,3.97-8.79,5.97-14.44,5.97h-17.67V9.2h17.67c5.64,0,10.44,2,14.44,5.97,3.97,3.97,5.97,8.79,5.97,14.44v68.86h10.2v-61.65c0-10.44-2.65-18.73-7.97-24.88,12.11,7.64,18.17,18.34,18.17,32.1v54.42h20.4v-46.45c0-14.28-5.97-26.5-17.91-36.71h.01ZM33.1,347.64h-10.2V9.2h10.2v338.44Z"/>
        <path class="cls-1" d="m204.49,113.91h-13.12l-37.04,359.32h-41.92L77.95,113.91h-13.12v-9.52h68.42v9.52h-13.12l27.52,315.59,30.61-315.59h-13.38v-9.52h39.61v9.52h0Zm-71.25,349.8L99.04,113.91h-10.55l34.47,349.8h10.29,0Z"/>
      </g>
    </g>
  </g>
</svg>