<svg width="168" height="405" viewBox="0 0 168 405" fill="none" xmlns="http://www.w3.org/2000/svg">
<path d="M83.1552 357.612C83.0071 359.8 82.7277 361.763 82.7277 364.007C73.5075 364.568 64.0078 364.849 54.7876 364.288C50.8174 363.957 46.9366 362.913 43.3323 361.202C39.1413 333.432 38.8617 305.101 41.3763 276.77C41.3763 275.928 41.097 274.806 41.3763 273.965C41.6559 272.562 41.6559 271.44 41.9352 270.037V267.232C44.7291 241.145 48.6408 215.899 53.67 190.654C73.228 191.215 92.5066 192.337 112.065 192.898C120.709 232.382 123.813 272.887 121.285 313.235C121.332 314.551 121.237 315.867 121.005 317.163C120.48 325.014 119.262 332.806 117.373 340.445C116.814 342.408 116.256 344.652 115.418 346.616C114.021 350.262 112.065 353.909 110.668 357.556C105.359 358.958 99.7711 359.239 94.183 358.958C91.1098 358.678 87.7569 358.678 84.5494 357.889L83.1552 357.612Z" fill="black"/>
<path d="M78.6344 364.838C78.2572 369.045 78.7769 371.741 80.2131 376.338C82.0153 382.484 92.7861 387.968 86.0805 394.851C85.801 395.133 80.7858 399.129 72.1104 396.534C71.4818 396.204 70.828 395.923 70.1547 395.694C69.2046 395.23 68.3218 394.635 67.5339 393.929C62.8651 389.96 59.8392 384.386 59.0485 378.296C58.4505 373.862 57.9505 368.521 58.308 364.723" fill="black"/>
<path d="M78.6344 364.838C78.2572 369.045 78.7769 371.741 80.2131 376.338C82.0153 382.484 92.7861 387.968 86.0805 394.851C85.801 395.133 80.7858 399.129 72.1104 396.534C71.4818 396.204 70.828 395.923 70.1547 395.694C69.2046 395.23 68.3218 394.635 67.5339 393.929C62.8651 389.96 59.8392 384.386 59.0485 378.296C58.4505 373.862 57.9505 368.521 58.308 364.723" stroke="black" stroke-width="1.2"/>
<path d="M105.613 359.418C105.633 360.089 105.633 360.93 105.912 361.491C106.192 362.052 106.471 362.894 106.751 363.455C110.383 368.223 115.133 371.028 119.603 374.955C122.397 377.48 124.911 382.249 121.559 385.334C115.035 388.31 104.683 386.526 102.56 385.615C100.604 384.773 98.6479 384.212 96.9715 383.09C89.1484 377.48 89.707 367.382 89.0924 359.031" fill="black"/>
<path d="M105.613 359.418C105.633 360.089 105.633 360.93 105.912 361.491C106.192 362.052 106.471 362.894 106.751 363.455C110.383 368.223 115.133 371.028 119.603 374.955C122.397 377.48 124.911 382.249 121.559 385.334C115.035 388.31 104.683 386.526 102.56 385.615C100.604 384.773 98.6479 384.212 96.9715 383.09C89.1484 377.48 89.707 367.382 89.0924 359.031" stroke="black" stroke-width="1.2"/>
<path d="M78.6344 364.837C78.2572 369.045 78.7769 371.741 80.2131 376.338C82.0153 382.484 92.7862 387.968 86.0805 394.851C85.801 395.133 80.7858 399.129 72.1105 396.534C71.4818 396.204 70.828 395.923 70.1547 395.694C69.2046 395.23 68.3218 394.635 67.5339 393.929C62.8651 389.96 59.8392 384.386 59.0486 378.296C58.4505 373.861 57.9505 368.52 58.308 364.722M112.202 192.937C120.089 230.289 123.299 268.486 121.754 306.638C121.073 323.387 119.388 340.444 110.399 357.856C101.841 359.286 93.1101 359.298 84.5494 357.889M97.3068 235.12C90.0201 239.395 89.4277 249.524 89.4669 257.995C89.6205 293.246 85.6363 328.372 82.5991 364.027C75.9438 364.476 69.2773 364.663 62.5996 364.588C56.0981 364.509 49.3979 364.133 43.5278 361.328M53.5638 190.64C42.9719 246.839 34.9754 304.503 43.226 361.098M105.613 359.418C105.633 360.088 105.633 360.93 105.912 361.491C106.192 362.052 106.471 362.893 106.751 363.454C110.383 368.223 115.133 371.028 119.603 374.955C122.397 377.48 124.911 382.248 121.559 385.334C115.035 388.31 104.683 386.526 102.56 385.615C100.604 384.773 98.6479 384.212 96.9715 383.09C89.1484 377.48 89.707 367.382 89.0924 359.031" stroke="black" stroke-width="1.2" stroke-linecap="round" stroke-linejoin="round"/>
<g clip-path="url(#clip0_2_37)">
<mask id="mask0_2_37" style="mask-type:luminance" maskUnits="userSpaceOnUse" x="0" y="107" width="168" height="168">
<path d="M0 107.321H167.64V274.961H0V107.321Z" fill="white"/>
</mask>
<g mask="url(#mask0_2_37)">
<path d="M72.8202 107.321C72.5687 110.143 71.4147 116.519 67.1204 115.563L66.6594 116.262C66.869 120.64 69.0873 123.727 72.5631 126.927C76.0946 130.126 80.5987 132.048 85.3513 132.386C89.5423 132.693 93.9986 131.69 97.1335 128.88C100.268 126.069 101.917 122.174 99.8409 118.835H99.5391C98.5949 118.863 97.7259 118.369 96.9269 117.866C95.9097 117.223 95.9797 114.083 95.3538 113.323C94.5156 112.236 92.0066 108.62 91.5762 107.318H72.8202V107.321Z" fill="white"/>
<path d="M57.224 229.715C59.9146 230.584 63.1976 233.236 60.9204 236.22C59.6688 237.865 57.7772 238.751 56.0421 239.785C54.7066 240.578 54.3517 243.261 53.8349 244.68C52.5273 248.267 49.9876 251.212 45.8217 250.933C41.5859 250.653 38.9512 247.046 38.1465 243.157C37.2748 238.938 38.2136 233.892 38.9149 229.721L57.224 229.715Z" fill="white"/>
<path d="M132.338 221.777C134.294 222.507 135.97 224.183 135.411 226.418C131.779 230.051 132.617 235.359 132.897 239.83C132.897 243.722 129.281 244.101 126.348 243.981C124.492 243.889 122.757 243.143 121.802 241.629C120.846 240.115 120.871 238.187 120.304 236.474C119.002 232.562 117.91 228.57 118.452 223.862L132.338 221.777Z" fill="white"/>
<path d="M111.844 194.706C112.601 202.292 113.783 209.827 115.392 217.279C116.792 216.656 118.304 216.318 119.835 216.287L123.467 216.05C126.306 215.703 128.586 215.36 131.424 215.016C130.248 202.038 128.739 189.093 126.898 176.179C125.297 164.933 123.433 153.685 120.125 142.819C117.186 133.163 112.523 123.177 103.669 118.335L102.638 116.74L94.0461 109.81C93.5292 110.663 93.9261 111.766 94.2333 111.487L95.3929 115.628C95.5438 116.052 95.6025 116.505 95.5717 116.955C95.3816 118.257 93.8309 118.793 92.5458 119.064L91.3639 119.17C85.9072 116.935 81.7973 114.865 77.6901 112.792C74.5942 111.23 71.3979 109.64 67.9389 109.375L66.6202 114.027C61.6775 115.351 57.8442 119.159 54.7569 123.06C51.3901 127.318 48.7498 132.101 46.9392 137.217C45.925 140.075 44.3213 143.291 43.6591 146.247L42.7761 148.952C37.2607 172.701 36.9703 197.313 36.7075 221.696L61.0321 221.297C62.1107 213.085 62.96 204.851 63.5803 196.59L64.6615 196.626C75.5079 198.009 86.6308 196.852 97.1083 195.522C102.666 196.19 108.343 195.774 113.615 194.075" fill="white"/>
<path d="M59.6353 221.523C60.0766 223.661 60.222 225.845 60.0711 228.022C60.0766 228.148 60.0598 228.274 60.0152 228.391C59.9705 228.508 59.9035 228.617 59.8167 228.709C59.6407 228.816 59.4341 228.863 59.23 228.841L40.2309 228.788C39.943 228.81 39.6553 228.757 39.3927 228.637C38.8563 228.332 38.8144 227.589 38.8338 226.96L39.035 221.811L59.6353 221.523Z" fill="white"/>
<path d="M130.527 215.223C131.422 217.111 131.645 219.598 131.824 221.68C128.988 222.543 121.584 222.906 118.27 223.431C118.195 223.454 118.114 223.443 118.044 223.406C118.002 223.37 117.971 223.322 117.957 223.269C117.195 221.395 116.183 218.578 116.021 216.564L130.527 215.223Z" fill="white"/>
<path d="M91.3639 119.173L88.6873 130.791C84.432 129.296 80.1656 127.798 76.1143 125.817C74.6559 125.105 73.1917 124.3 72.1356 123.068C70.8867 121.612 70.3278 119.715 69.7997 117.863C69.0064 115.069 68.2072 112.275 67.9446 109.377C71.4036 109.643 74.5999 111.233 77.6956 112.795C81.8057 114.865 85.9156 116.941 91.3639 119.173Z" fill="white"/>
<path d="M94.2417 111.49L95.4013 115.63C95.5522 116.055 95.6109 116.508 95.5801 116.958C95.39 118.26 93.8393 118.796 92.5542 119.067C93.9986 122.534 96.0857 125.7 98.7009 128.396C100.148 126.843 101.249 125.002 101.931 122.99C102.613 120.978 102.856 118.846 102.649 116.734L94.0573 109.805C93.5376 110.657 93.9345 111.747 94.2417 111.49Z" fill="white"/>
<path d="M66.6202 114.027C61.6776 115.351 57.8443 119.159 54.7569 123.06C51.3901 127.318 48.7498 132.101 46.9393 137.217C45.925 140.075 44.3213 143.291 43.6592 146.247M57.3581 229.956C60.0487 230.824 63.1976 233.236 60.9204 236.22C59.6688 237.865 57.7772 238.751 56.0421 239.785C54.7067 240.578 54.3517 243.261 53.8349 244.68C52.5273 248.267 49.9876 251.212 45.8217 250.933C41.5859 250.653 38.9512 247.047 38.1465 243.157C37.2748 238.938 38.2163 234.58 38.9204 230.408M132.338 221.777C134.294 222.507 135.97 224.183 135.411 226.418C131.779 230.051 132.617 235.359 132.897 239.83C132.897 243.722 129.281 244.101 126.348 243.981C124.492 243.889 122.757 243.143 121.802 241.629C120.846 240.115 120.564 238.259 120.304 236.474L118.466 223.862M92.42 120.732C93.7836 145.398 95.7393 169.985 97.0385 194.536M64.4549 145.289C65.4859 170.672 64.3403 196.098 61.0321 221.286L36.7075 221.685C36.9703 197.302 36.5707 175.819 42.0804 152.067M59.6353 221.523C60.0766 223.661 60.222 225.845 60.0711 228.022C60.0766 228.148 60.0598 228.274 60.0152 228.391C59.9706 228.508 59.9035 228.617 59.8167 228.709C59.6407 228.816 59.4341 228.863 59.23 228.841L40.2309 228.788C39.943 228.81 39.6553 228.757 39.3927 228.637C38.8563 228.332 38.8144 227.589 38.8339 226.96L39.035 221.811M114.118 142.246C111.374 144.143 111.394 148.127 111.704 151.447C112.948 164.732 114.191 178.015 115.429 191.3C115.485 191.901 115.529 192.547 115.216 193.061C114.903 193.575 114.227 193.863 113.615 194.061C108.343 195.76 102.666 196.176 97.1083 195.508C86.4269 197.257 75.5079 197.995 64.6616 196.612M111.844 194.706C112.601 202.292 113.783 209.827 115.392 217.279C117.111 217.114 119.184 216.648 120.737 216.449L124.878 215.86C127.717 215.513 128.602 215.346 131.441 215.002C130.265 202.013 128.756 189.068 126.915 176.165C125.314 164.92 123.45 153.671 120.142 142.805C117.195 133.157 112.531 123.171 103.677 118.329M130.578 215.575C131.475 217.461 131.656 219.598 131.824 221.68C128.988 222.543 121.584 222.906 118.27 223.431C118.195 223.454 118.114 223.443 118.044 223.406C118.002 223.37 117.971 223.322 117.957 223.269C117.195 221.398 116.725 219.416 116.56 217.402M91.3639 119.173L88.6873 130.791C84.432 129.296 80.1655 127.798 76.1143 125.817C74.6558 125.105 73.1917 124.3 72.1356 123.068C70.8867 121.612 70.3278 119.715 69.7997 117.863C69.0064 115.069 68.2071 112.275 67.9446 109.377C71.4036 109.643 74.5999 111.233 77.6956 112.795C81.8057 114.865 85.9156 116.941 91.3639 119.173ZM94.2417 111.49L95.4013 115.63C95.5522 116.055 95.6109 116.508 95.5801 116.958C95.39 118.26 93.8393 118.796 92.5542 119.067C93.9986 122.534 96.0857 125.7 98.7009 128.396C100.148 126.843 101.249 125.002 101.931 122.99C102.613 120.978 102.856 118.846 102.649 116.734L94.0573 109.805C93.5376 110.657 93.9345 111.747 94.2417 111.49Z" stroke="black" stroke-width="1.2" stroke-linecap="round" stroke-linejoin="round"/>
</g>
</g>
<path d="M67.4109 101.241C63.9296 101.864 60.2723 101.012 57.2156 99.2346C50.3115 95.2253 46.7716 86.9409 46.4307 78.9753C46.0899 71.0097 48.4564 63.1779 50.9375 55.5922C51.2168 54.754 51.4823 53.8293 51.1162 53.0303C50.5911 51.8735 49.0934 51.6332 47.8472 51.4042C45.1818 50.8929 42.7063 49.6718 40.6779 47.8724C38.6494 46.0732 37.1434 43.7568 36.3192 41.1724C35.4951 38.5881 35.3832 35.8304 35.9923 33.1871C36.6042 30.5441 37.9175 28.116 39.7921 26.1546C43.4245 22.3743 48.8615 20.7176 54.1002 20.8153C58.8893 20.902 63.7844 22.4359 67.2461 25.7468C70.7079 29.0577 72.4736 34.2965 70.9678 38.8506L73.4321 39.6442C81.571 36.3555 90.8442 35.8052 99.2262 38.4175C107.608 41.0299 115.007 46.8387 119.259 54.5193C121.682 58.8947 123.079 63.7814 123.805 68.7298C124.47 73.2672 121.662 81.0457 118.214 84.0772L111.595 67.1456C107.256 67.8497 102.833 66.7738 98.6452 65.4384C90.9029 62.9684 82.9259 59.1072 79.087 51.9461C80.431 55.6817 80.3919 59.4228 80.1012 63.0887C79.8219 66.528 79.3217 70.0206 77.8018 73.119C76.2819 76.2176 73.6108 78.8999 70.244 79.6934" fill="black"/>
<path d="M72.7837 108.058C73.1022 104.233 72.3535 100.791 70.6882 97.3319C70.311 96.5495 69.5009 96.5578 68.699 96.3036C67.9865 96.0801 67.2881 95.8232 66.5978 95.5325C65.198 94.9514 63.8766 94.1998 62.6582 93.2974C60.2499 91.4785 58.3723 88.9248 57.6682 85.9632C57.0285 83.278 57.4782 80.0817 60.4622 78.57C62.566 77.5085 64.452 77.8857 67.6569 80.702L70.2245 79.6962C73.5773 78.9026 76.2623 76.2204 77.7823 73.1217C79.3022 70.0233 79.8078 66.5308 80.0817 63.0914C80.3611 59.4255 80.4114 55.6844 79.0675 51.9488C82.9148 59.1099 90.8918 62.9713 98.6255 65.4411C102.816 66.7768 107.237 67.8524 111.576 67.1483L114.853 68.8247C116.655 73.46 117.739 77.6453 118.013 80.1794C118.703 86.561 117.415 93.6522 112.534 98.198C109.933 100.618 106.711 101.808 103.266 102.414C99.6732 103.048 95.8175 103.627 92.3306 102.202C92.515 105.11 92.5431 107.186 92.4089 110.098" fill="white"/>
<path d="M106.611 76.5137C105.531 76.5137 104.655 75.4505 104.655 74.1389C104.655 72.8273 105.531 71.7641 106.611 71.7641C107.691 71.7641 108.567 72.8273 108.567 74.1389C108.567 75.4505 107.691 76.5137 106.611 76.5137Z" fill="black"/>
<path d="M97.1113 77.1705C96.031 77.1705 95.1553 76.1072 95.1553 74.7954C95.1553 73.4838 96.031 72.4206 97.1113 72.4206C98.1913 72.4206 99.067 73.4838 99.067 74.7954C99.067 76.1072 98.1913 77.1705 97.1113 77.1705Z" fill="black"/>
<path d="M70.2496 79.6878C73.6024 78.8942 76.2874 76.212 77.8075 73.1136C79.3274 70.0149 79.833 66.5224 80.1069 63.083C80.3862 59.4174 80.4365 55.676 79.0927 51.9406C82.94 59.1016 90.917 62.9629 98.6506 65.4327C102.842 66.7684 107.262 67.844 111.601 67.1399M73.4459 39.6442C81.5848 36.3555 90.8583 35.8052 99.2403 38.4175C107.622 41.0299 115.021 46.8387 119.273 54.5193C121.696 58.8947 123.093 63.7814 123.819 68.7298C124.484 73.2672 124.333 78.5505 120.885 81.5821M70.9678 38.8506C72.4598 34.2965 70.6882 29.0577 67.2321 25.7468C63.776 22.4359 58.8753 20.902 54.0864 20.8153C48.8476 20.7176 43.4021 22.3743 39.7783 26.1546C37.9035 28.1133 36.5902 30.5441 35.9783 33.1871C35.3664 35.8304 35.4783 38.5881 36.3052 41.1724C37.1296 43.7568 38.6354 46.0703 40.6639 47.8724C42.6923 49.6718 45.1707 50.8929 47.8334 51.4042C49.0794 51.6416 50.5771 51.8735 51.1024 53.0303C51.4683 53.8293 51.1973 54.757 50.9234 55.5922C48.4424 63.1779 46.0759 70.9984 46.4169 78.9753C46.7576 86.9523 50.2977 95.2253 57.2016 99.2346C60.2583 101.012 63.9072 101.864 67.397 101.241M67.682 80.6936C64.4772 77.8773 62.5912 77.5001 60.4873 78.5619C57.4922 80.0734 57.0423 83.2696 57.6934 85.9548C58.3975 88.9164 60.275 91.4702 62.6834 93.2891C63.8988 94.1914 65.2232 94.943 66.623 95.5241C67.3103 95.8148 68.0116 96.0719 68.7241 96.2953C69.5261 96.5497 70.3362 96.5413 70.7134 97.3235C72.373 100.783 73.08 102.386 72.7559 106.211M92.4423 108.684C92.5764 105.773 92.5485 105.094 92.3641 102.185C95.851 103.61 99.7068 103.023 103.3 102.397C106.745 101.791 109.966 100.601 112.568 98.1812C117.449 93.6354 118.745 86.5443 118.047 80.1628C117.767 77.6285 116.689 73.4432 114.887 68.8079" stroke="black" stroke-width="1.2" stroke-linecap="round" stroke-linejoin="round"/>
<defs>
<clipPath id="clip0_2_37">
<rect width="167.64" height="167.64" fill="white" transform="matrix(-1 0 0 1 167.64 107.321)"/>
</clipPath>
</defs>
</svg>
